# Blender 4.4.1
# www.blender.org
mtllib enemy.mtl
o 立方体
v 0.000000 0.000000 1.000000
v 0.713794 -0.571326 -4.295646
v -0.713794 -0.571326 -2.089307
v -0.713794 0.571326 -2.089307
v -0.713794 -0.571326 -4.295646
v -0.713794 0.571326 -4.295646
v 0.713794 -0.571326 -2.089307
v 0.713794 0.571326 -2.089307
v 0.713794 0.571326 -4.295646
v -2.021442 0.571326 -4.295646
v -2.021442 0.571326 -2.089307
v -2.021442 -0.571326 -2.089307
v -2.021442 -0.571326 -4.295646
v -2.124444 -0.195357 -7.020333
v -0.713794 0.543339 -4.295646
v -0.713794 0.543339 -2.089307
v 0.713794 0.543339 -2.089307
v 0.713794 0.543339 -4.295646
v 0.000000 1.383143 -4.672236
v -0.713794 -0.571326 -4.295646
v 0.713794 -0.571326 -2.089307
v 0.713794 0.571326 -2.089307
v 0.713794 -0.571326 -4.295646
v 0.713794 0.571326 -4.295646
v -0.713794 -0.571326 -2.089307
v -0.713794 0.571326 -2.089307
v -0.713794 0.571326 -4.295646
v 2.021442 0.571326 -4.295646
v 2.021442 0.571326 -2.089307
v 2.021442 -0.571326 -2.089307
v 2.021442 -0.571326 -4.295646
v 2.124444 -0.195357 -7.020333
v 0.713794 0.543339 -4.295646
v 0.713794 0.543339 -2.089307
v -0.713794 0.543339 -2.089307
v -0.713794 0.543339 -4.295646
vn -0.9743 -0.0000 0.2251
vn 1.0000 -0.0000 -0.0000
vn 0.9743 -0.0000 0.2251
vn -0.0000 -1.0000 -0.0000
vn -0.0000 -0.9833 0.1819
vn -0.0000 0.9833 0.1819
vn -0.0000 -0.0000 -1.0000
vn -1.0000 -0.0000 -0.0000
vn -0.0000 -0.0000 1.0000
vn -0.0000 1.0000 -0.0000
vn -0.0000 -0.9906 -0.1367
vn -0.9993 -0.0000 0.0378
vn 0.8880 -0.0000 -0.4598
vn -0.0000 0.9626 -0.2709
vn 0.7620 0.6476 -0.0000
vn -0.7620 0.6476 -0.0000
vn -0.0000 -0.4092 -0.9125
vn -0.0000 0.9510 0.3092
vn 0.9993 -0.0000 0.0378
vn -0.8880 -0.0000 -0.4598
vt 0.679654 0.000110
vt 0.999889 0.000110
vt 0.999890 0.320346
vt 0.226551 0.452992
vt 0.452992 0.226551
vt 0.452992 0.679433
vt 0.000111 0.679433
vt 0.226551 0.905874
vt 0.679433 0.000110
vt 0.679433 0.452992
vt 0.226551 0.000110
vt 0.000111 0.226551
s 0
usemtl マテリアル
f 1/1/1 4/2/1 3/3/1
f 7/4/2 9/5/2 8/5/2
f 7/4/3 8/5/3 1/6/3
f 3/7/4 2/4/4 7/4/4
f 3/7/5 7/4/5 1/8/5
f 8/5/6 4/9/6 1/10/6
f 6/11/7 2/4/7 5/12/7
f 4/9/2 15/9/2 6/9/2
f 3/7/4 13/7/4 5/7/4
f 11/2/8 13/3/8 12/3/8
f 4/2/9 12/3/9 3/3/9
f 6/9/10 11/9/10 4/9/10
f 5/7/11 13/7/11 14/7/11
f 13/3/12 10/2/12 14/3/12
f 6/11/13 5/12/13 14/11/13
f 10/9/14 6/9/14 14/9/14
f 17/5/15 18/5/15 19/5/15
f 6/11/9 18/5/9 9/5/9
f 9/5/8 17/5/8 8/5/8
f 8/5/7 16/9/7 4/9/7
f 15/9/16 16/9/16 19/9/16
f 18/5/17 15/11/17 19/5/17
f 16/9/18 17/5/18 19/9/18
f 7/4/2 2/4/2 9/5/2
f 3/7/4 5/7/4 2/4/4
f 6/11/7 9/5/7 2/4/7
f 4/9/2 16/9/2 15/9/2
f 3/7/4 12/7/4 13/7/4
f 11/2/8 10/2/8 13/3/8
f 4/2/9 11/2/9 12/3/9
f 6/9/10 10/9/10 11/9/10
f 6/11/9 15/11/9 18/5/9
f 9/5/8 18/5/8 17/5/8
f 8/5/7 17/5/7 16/9/7
f 1/1/3 21/3/3 22/2/3
f 25/4/8 26/5/8 27/5/8
f 25/4/1 1/6/1 26/5/1
f 21/7/4 25/4/4 20/4/4
f 21/7/5 1/8/5 25/4/5
f 26/5/6 1/10/6 22/9/6
f 24/11/7 23/12/7 20/4/7
f 22/9/8 24/9/8 33/9/8
f 21/7/4 23/7/4 31/7/4
f 29/2/2 30/3/2 31/3/2
f 22/2/9 21/3/9 30/3/9
f 24/9/10 22/9/10 29/9/10
f 23/7/11 32/7/11 31/7/11
f 31/3/19 32/3/19 28/2/19
f 24/11/20 32/11/20 23/12/20
f 28/9/14 32/9/14 24/9/14
f 35/5/16 19/5/16 36/5/16
f 24/11/9 27/5/9 36/5/9
f 27/5/2 26/5/2 35/5/2
f 26/5/7 22/9/7 34/9/7
f 33/9/15 19/9/15 34/9/15
f 36/5/17 19/5/17 33/11/17
f 34/9/18 19/9/18 35/5/18
f 25/4/8 27/5/8 20/4/8
f 21/7/4 20/4/4 23/7/4
f 24/11/7 20/4/7 27/5/7
f 22/9/8 33/9/8 34/9/8
f 21/7/4 31/7/4 30/7/4
f 29/2/2 31/3/2 28/2/2
f 22/2/9 30/3/9 29/2/9
f 24/9/10 29/9/10 28/9/10
f 24/11/9 36/5/9 33/11/9
f 27/5/2 35/5/2 36/5/2
f 26/5/7 34/9/7 35/5/7
